<svg xmlns="http://www.w3.org/2000/svg" width="50" height="100" viewBox="0 0 50 100"><defs><style>.a,.b{fill:#fff;}.b,.d{opacity:0.8;isolation:isolate;}.c,.d{fill:#ccc;}</style></defs><title>icon-enact-</title><polygon class="a" points="25 84.4 17 79.2 17 76.3 25 81.5 25 74.9 17 70.3 17 67.5 25 72 25 72 25 72 25 65.4 11.9 59 11.9 81.5 25 91 25 84.4"/><polygon class="b" points="25 91 38.1 81.5 38.1 75.9 25 84.4 25 91"/><polygon class="b" points="25 81.5 34.2 75.5 34.2 69.6 25 74.9 25 81.5"/><polygon class="b" points="25 72 25 72 25 72 38.1 64.6 38.1 59 25 65.4 25 72"/><polygon class="c" points="25 34.4 17 29.2 17 26.3 25 31.5 25 24.9 17 20.3 17 17.5 25 22 25 22 25 22 25 15.4 11.9 9 11.9 31.5 25 41 25 34.4"/><polygon class="d" points="25 41 38.1 31.5 38.1 25.9 25 34.4 25 41"/><polygon class="d" points="25 31.5 34.2 25.5 34.2 19.6 25 24.9 25 31.5"/><polygon class="d" points="25 22 25 22 25 22 38.1 14.6 38.1 9 25 15.4 25 22"/></svg>