<svg xmlns="http://www.w3.org/2000/svg" width="50" height="100" viewBox="0 0 50 100"><defs><style>.a,.b,.c,.d{fill:#fff;}.a,.e{opacity:0.8;}.a,.c,.d,.e,.g,.h{isolation:isolate;}.c,.g{opacity:0.2;}.d,.h{opacity:0.3;}.e,.f,.g,.h{fill:#ccc;}</style></defs><title>icon-enact-</title><polygon class="a" points="15.8 62 14.1 62.8 14.1 69.8 15.8 68.9 15.8 62"/><polygon class="a" points="22.7 65.6 22.7 59 21 59.7 21 66.4 22.7 65.6"/><polygon class="a" points="19.3 67.3 19.3 60.5 17.6 61.3 17.6 68.1 19.3 67.3"/><polygon class="b" points="17.6 61.3 16.1 60.5 16.1 68.8 17.6 68.1 17.6 61.3"/><polygon class="b" points="21 59.7 19.6 59 19.6 67.1 21 66.4 21 59.7"/><polygon class="c" points="22.8 65.6 22.7 65.6 21 66.4 19.6 67.1 19.3 67.3 17.6 68.1 16.1 68.8 15.8 68.9 14.1 69.8 14.1 69.8 14.1 69.8 14.5 70.2 18.7 74.8 18.7 72.4 25.9 68.9 22.8 65.6"/><polygon class="a" points="37.4 85.5 28.6 91 28.6 80.8 37.4 75.9 37.4 85.5"/><path class="d" d="M23.5,77.7V75.3l7.1-3.8-3.3-3.3-1.4.7-7.2,3.6,1.5,1.6Z"/><path class="c" d="M32.1,70.7l-1.5.8-7.1,3.8L25,76.9l3.6,3.9,8.7-5Z"/><path class="b" d="M25,76.9l-1.5-1.6v2.5l-4.8-5.3v2.4l-4.6-5.1v-7L12.6,62V80.5l10.9,7.2V82.7l1.7,1.1v5L28.6,91V80.8Zm-9.4,3.2-1.5-1V76.8l1.5.9Zm3.1,2-1.6-1V78.7l1.6,1Zm3.2,2.1-1.6-1V80.6l1.6,1Z"/><polygon class="a" points="20.2 83.1 21.9 84.1 21.9 81.6 20.2 80.6 20.2 83.1"/><polygon class="a" points="17.1 81 18.7 82 18.7 79.6 17.1 78.7 17.1 81"/><polygon class="a" points="14.1 79.1 15.6 80.1 15.6 77.7 14.1 76.8 14.1 79.1"/><polygon class="e" points="15.8 12 14.1 12.8 14.1 19.8 15.8 18.9 15.8 12"/><polygon class="e" points="22.7 15.6 22.7 9 21 9.7 21 16.4 22.7 15.6"/><polygon class="e" points="19.3 17.3 19.3 10.5 17.6 11.3 17.6 18.1 19.3 17.3"/><polygon class="f" points="17.6 11.3 16.1 10.5 16.1 18.8 17.6 18.1 17.6 11.3"/><polygon class="f" points="21 9.7 19.6 9 19.6 17.1 21 16.4 21 9.7"/><polygon class="g" points="22.8 15.6 22.7 15.6 21 16.4 19.6 17.1 19.3 17.3 17.6 18.1 16.1 18.8 15.8 18.9 14.1 19.8 14.1 19.8 14.1 19.8 14.5 20.2 18.7 24.8 18.7 22.4 25.9 18.9 22.8 15.6"/><polygon class="e" points="37.4 35.5 28.6 41 28.6 30.8 37.4 25.9 37.4 35.5"/><path class="h" d="M23.5,27.7V25.3l7.1-3.8-3.3-3.3-1.4.7-7.2,3.6,1.5,1.6Z"/><path class="g" d="M32.1,20.7l-1.5.8-7.1,3.8L25,26.9l3.6,3.9,8.7-5Z"/><path class="f" d="M25,26.9l-1.5-1.6v2.5l-4.8-5.3v2.4l-4.6-5.1v-7L12.6,12V30.5l10.9,7.2V32.7l1.7,1.1v5L28.6,41V30.8Zm-9.4,3.2-1.5-1V26.8l1.5.9Zm3.1,2-1.6-1V28.7l1.6,1Zm3.2,2.1-1.6-1V30.6l1.6,1Z"/><polygon class="e" points="20.2 33.1 21.9 34.1 21.9 31.6 20.2 30.6 20.2 33.1"/><polygon class="e" points="17.1 31 18.7 32 18.7 29.6 17.1 28.7 17.1 31"/><polygon class="e" points="14.1 29.1 15.6 30.1 15.6 27.7 14.1 26.8 14.1 29.1"/></svg>