<?xml version="1.0" encoding="utf-8"?>
<!-- Generator: Adobe Illustrator 18.1.1, SVG Export Plug-In . SVG Version: 6.00 Build 0)  -->
<svg version="1.1" id="Layer_1" xmlns="http://www.w3.org/2000/svg" xmlns:xlink="http://www.w3.org/1999/xlink" x="0px" y="0px"
	 viewBox="0 100 50 100" enable-background="new 0 100 50 100" xml:space="preserve">
<g id="Active">
	<path fill="#FFFFFF" d="M39.9,184.2l-7-6.7c-1.2,2.2-3,4.1-5.2,5.4l6.9,6.6c0.7,0.7,1.7,1.1,2.6,1.1c1,0,1.9-0.4,2.7-1.1
		C41.4,188,41.3,185.7,39.9,184.2"/>
	<path fill="#FFFFFF" d="M20.6,159.4C14.2,159.4,9,164.6,9,171c0,6.4,5.2,11.6,11.6,11.6s11.6-5.2,11.6-11.6
		C32.2,164.6,27,159.4,20.6,159.4z M20.6,179.9c-4.9,0-8.9-4-8.9-8.9c0-4.9,4-8.9,8.9-8.9s8.9,4,8.9,8.9
		C29.5,175.9,25.5,179.9,20.6,179.9z"/>
	<path opacity="0.4" fill="#FFFFFF" d="M20.6,164.4c-3.6,0-6.6,2.9-6.6,6.6c0,3.6,2.9,6.6,6.6,6.6c3.6,0,6.6-2.9,6.6-6.6
		C27.1,167.4,24.2,164.4,20.6,164.4"/>
</g>
<g id="Normal">
	<path fill="#A6A6A6" d="M39.9,134.2l-7-6.7c-1.2,2.2-3,4.1-5.2,5.4l6.9,6.6c0.7,0.7,1.7,1.1,2.6,1.1c1,0,1.9-0.4,2.7-1.1
		C41.4,138,41.3,135.7,39.9,134.2"/>
	<path fill="#A6A6A6" d="M20.6,109.4C14.2,109.4,9,114.6,9,121c0,6.4,5.2,11.6,11.6,11.6s11.6-5.2,11.6-11.6
		C32.2,114.6,27,109.4,20.6,109.4z M20.6,129.9c-4.9,0-8.9-4-8.9-8.9c0-4.9,4-8.9,8.9-8.9s8.9,4,8.9,8.9
		C29.5,125.9,25.5,129.9,20.6,129.9z"/>
	<path opacity="0.4" fill="#A6A6A6" d="M20.6,114.4c-3.6,0-6.6,2.9-6.6,6.6c0,3.6,2.9,6.6,6.6,6.6c3.6,0,6.6-2.9,6.6-6.6
		C27.1,117.4,24.2,114.4,20.6,114.4"/>
</g>
</svg>
