<?xml version="1.0" encoding="utf-8"?>
<!-- Generator: Adobe Illustrator 18.1.1, SVG Export Plug-In . SVG Version: 6.00 Build 0)  -->
<svg version="1.1" id="Layer_1" xmlns="http://www.w3.org/2000/svg" xmlns:xlink="http://www.w3.org/1999/xlink" x="0px" y="0px"
	 viewBox="0 100 50 100" enable-background="new 0 100 50 100" xml:space="preserve">
<g id="Active">
	<path fill="#FFFFFF" d="M14.4,170.1l1.9,17.5c0,1.8,3.9,3.3,8.7,3.3s8.7-1.5,8.7-3.3l1.9-17.5H14.4L14.4,170.1z M20.3,187.6h-0.1
		c-0.5,0-1-0.4-1.1-1l-1.3-12.8c-0.1-0.6,0.4-1.1,1-1.2c0.6-0.1,1.1,0.4,1.2,1l1.3,12.8C21.3,187.1,20.9,187.6,20.3,187.6z
		 M26.1,188.3c0,0.6-0.5,1.1-1.1,1.1c-0.6,0-1.1-0.5-1.1-1.1v-14.5c0-0.6,0.5-1.1,1.1-1.1c0.6,0,1.1,0.5,1.1,1.1V188.3z M31.1,186.8
		c-0.1,0.5-0.5,1-1.1,1h-0.1c-0.6-0.1-1-0.6-1-1.2l1.3-12.8c0.1-0.6,0.6-1,1.2-1c0.6,0.1,1,0.6,1,1.2L31.1,186.8z"/>
	<path fill="#FFFFFF" d="M29.7,165.1v-2.3c0-1-0.4-1.9-1-2.5c-1.3-1.2-3.3-1.2-3.8-1.2c-0.4,0-2.4,0-3.6,1.1
		c-0.7,0.6-1.1,1.5-1.1,2.6v2.3c-2.7,0.7-4.8,1.9-5.6,3h20.8C34.5,166.9,32.5,165.6,29.7,165.1z M22.5,164.6c0.1-1,0.2-2.8,0.3-2.9
		c0.6-0.5,1.7-0.6,2.1-0.6H25h0.1c0.4,0,1.6,0,2.2,0.6c0.1,0.1,0.2,1.8,0.3,2.9c-0.8-0.1-1.6-0.2-2.5-0.2
		C24.1,164.4,23.3,164.4,22.5,164.6z"/>
</g>
<g id="Normal">
	<path fill="#A6A6A6" d="M14.4,120.1l1.9,17.5c0,1.8,3.9,3.3,8.7,3.3s8.7-1.5,8.7-3.3l1.9-17.5H14.4L14.4,120.1z M20.3,137.6h-0.1
		c-0.5,0-1-0.4-1.1-1l-1.3-12.8c-0.1-0.6,0.4-1.1,1-1.2c0.6-0.1,1.1,0.4,1.2,1l1.3,12.8C21.3,137.1,20.9,137.6,20.3,137.6z
		 M26.1,138.3c0,0.6-0.5,1.1-1.1,1.1c-0.6,0-1.1-0.5-1.1-1.1v-14.5c0-0.6,0.5-1.1,1.1-1.1c0.6,0,1.1,0.5,1.1,1.1V138.3z M31.1,136.8
		c-0.1,0.5-0.5,1-1.1,1h-0.1c-0.6-0.1-1-0.6-1-1.2l1.3-12.8c0.1-0.6,0.6-1,1.2-1c0.6,0.1,1,0.6,1,1.2L31.1,136.8z"/>
	<path fill="#A6A6A6" d="M29.7,115.1v-2.3c0-1-0.4-1.9-1-2.5c-1.3-1.2-3.3-1.2-3.8-1.2c-0.4,0-2.4,0-3.6,1.1
		c-0.7,0.6-1.1,1.5-1.1,2.6v2.3c-2.7,0.7-4.8,1.9-5.6,3h20.8C34.5,116.9,32.5,115.6,29.7,115.1z M22.5,114.6c0.1-1,0.2-2.8,0.3-2.9
		c0.6-0.5,1.7-0.6,2.1-0.6H25h0.1c0.4,0,1.6,0,2.2,0.6c0.1,0.1,0.2,1.8,0.3,2.9c-0.8-0.1-1.6-0.2-2.5-0.2
		C24.1,114.4,23.3,114.4,22.5,114.6z"/>
</g>
</svg>
